<?xml version="1.0" encoding="UTF-8" standalone="no"?><!DOCTYPE svg PUBLIC "-//W3C//DTD SVG 1.1//EN" "http://www.w3.org/Graphics/SVG/1.1/DTD/svg11.dtd"><!-- Generated by graphviz version 2.40.1 (20161225.0304)
 --><!-- Title: BST Pages: 1 --><svg xmlns="http://www.w3.org/2000/svg" xmlns:xlink="http://www.w3.org/1999/xlink" width="250pt" height="660pt" viewBox="0.00 0.00 250.00 659.60">
<g id="graph0" class="graph" transform="scale(1 1) rotate(0) translate(4 655.6)">
<title>BST</title>
<polygon fill="#ffffff" stroke="transparent" points="-4,4 -4,-655.6 246,-655.6 246,4 -4,4"/>
<!-- null0 -->
<g id="node1" class="node">
<title>null0</title>
<ellipse fill="#000000" stroke="#000000" cx="4" cy="-561.6" rx="1.8" ry="1.8"/>
</g>
<!-- a -->
<g id="node2" class="node">
<title>a</title>
<ellipse fill="none" stroke="#000000" cx="27" cy="-633.6" rx="27" ry="18"/>
<text text-anchor="middle" x="27" y="-629.4" font-family="Arial" font-size="14.00" fill="#000000">a</text>
</g>
<!-- a&#45;&gt;null0 -->
<g id="edge1" class="edge">
<title>a-&gt;null0</title>
<path fill="none" stroke="#000000" d="M21.3146,-615.8022C17.0619,-602.4895 11.3696,-584.67 7.6934,-573.1618"/>
<polygon fill="#000000" stroke="#000000" points="10.9607,-571.8878 4.5837,-563.4271 4.2927,-574.018 10.9607,-571.8878"/>
</g>
<!-- b -->
<g id="node3" class="node">
<title>b</title>
<ellipse fill="none" stroke="#000000" cx="51" cy="-561.6" rx="27" ry="18"/>
<text text-anchor="middle" x="51" y="-557.4" font-family="Arial" font-size="14.00" fill="#000000">b</text>
</g>
<!-- a&#45;&gt;b -->
<g id="edge2" class="edge">
<title>a-&gt;b</title>
<path fill="none" stroke="#000000" d="M32.9326,-615.8022C35.6355,-607.6936 38.8957,-597.9129 41.8984,-588.9049"/>
<polygon fill="#000000" stroke="#000000" points="45.2937,-589.7867 45.1357,-579.193 38.6529,-587.573 45.2937,-589.7867"/>
</g>
<!-- null1 -->
<g id="node4" class="node">
<title>null1</title>
<ellipse fill="#000000" stroke="#000000" cx="28" cy="-489.6" rx="1.8" ry="1.8"/>
</g>
<!-- b&#45;&gt;null1 -->
<g id="edge3" class="edge">
<title>b-&gt;null1</title>
<path fill="none" stroke="#000000" d="M45.3146,-543.8022C41.0619,-530.4895 35.3696,-512.67 31.6934,-501.1618"/>
<polygon fill="#000000" stroke="#000000" points="34.9607,-499.8878 28.5837,-491.4271 28.2927,-502.018 34.9607,-499.8878"/>
</g>
<!-- c -->
<g id="node5" class="node">
<title>c</title>
<ellipse fill="none" stroke="#000000" cx="75" cy="-489.6" rx="27" ry="18"/>
<text text-anchor="middle" x="75" y="-485.4" font-family="Arial" font-size="14.00" fill="#000000">c</text>
</g>
<!-- b&#45;&gt;c -->
<g id="edge4" class="edge">
<title>b-&gt;c</title>
<path fill="none" stroke="#000000" d="M56.9326,-543.8022C59.6355,-535.6936 62.8957,-525.9129 65.8984,-516.9049"/>
<polygon fill="#000000" stroke="#000000" points="69.2937,-517.7867 69.1357,-507.193 62.6529,-515.573 69.2937,-517.7867"/>
</g>
<!-- null2 -->
<g id="node6" class="node">
<title>null2</title>
<ellipse fill="#000000" stroke="#000000" cx="51" cy="-417.6" rx="1.8" ry="1.8"/>
</g>
<!-- c&#45;&gt;null2 -->
<g id="edge5" class="edge">
<title>c-&gt;null2</title>
<path fill="none" stroke="#000000" d="M69.0674,-471.8022C64.6298,-458.4895 58.69,-440.67 54.8539,-429.1618"/>
<polygon fill="#000000" stroke="#000000" points="58.0918,-427.8071 51.609,-419.4271 51.451,-430.0208 58.0918,-427.8071"/>
</g>
<!-- d -->
<g id="node7" class="node">
<title>d</title>
<ellipse fill="none" stroke="#000000" cx="98" cy="-417.6" rx="27" ry="18"/>
<text text-anchor="middle" x="98" y="-413.4" font-family="Arial" font-size="14.00" fill="#000000">d</text>
</g>
<!-- c&#45;&gt;d -->
<g id="edge6" class="edge">
<title>c-&gt;d</title>
<path fill="none" stroke="#000000" d="M80.6854,-471.8022C83.2563,-463.7541 86.3534,-454.0588 89.2132,-445.1067"/>
<polygon fill="#000000" stroke="#000000" points="92.5913,-446.0334 92.3003,-435.4425 85.9232,-443.9033 92.5913,-446.0334"/>
</g>
<!-- null3 -->
<g id="node8" class="node">
<title>null3</title>
<ellipse fill="#000000" stroke="#000000" cx="75" cy="-345.6" rx="1.8" ry="1.8"/>
</g>
<!-- d&#45;&gt;null3 -->
<g id="edge7" class="edge">
<title>d-&gt;null3</title>
<path fill="none" stroke="#000000" d="M92.3146,-399.8022C88.0619,-386.4895 82.3696,-368.67 78.6934,-357.1618"/>
<polygon fill="#000000" stroke="#000000" points="81.9607,-355.8878 75.5837,-347.4271 75.2927,-358.018 81.9607,-355.8878"/>
</g>
<!-- e -->
<g id="node9" class="node">
<title>e</title>
<ellipse fill="none" stroke="#000000" cx="122" cy="-345.6" rx="27" ry="18"/>
<text text-anchor="middle" x="122" y="-341.4" font-family="Arial" font-size="14.00" fill="#000000">e</text>
</g>
<!-- d&#45;&gt;e -->
<g id="edge8" class="edge">
<title>d-&gt;e</title>
<path fill="none" stroke="#000000" d="M103.9326,-399.8022C106.6355,-391.6936 109.8957,-381.9129 112.8984,-372.9049"/>
<polygon fill="#000000" stroke="#000000" points="116.2937,-373.7867 116.1357,-363.193 109.6529,-371.573 116.2937,-373.7867"/>
</g>
<!-- null4 -->
<g id="node10" class="node">
<title>null4</title>
<ellipse fill="#000000" stroke="#000000" cx="99" cy="-273.6" rx="1.8" ry="1.8"/>
</g>
<!-- e&#45;&gt;null4 -->
<g id="edge9" class="edge">
<title>e-&gt;null4</title>
<path fill="none" stroke="#000000" d="M116.3146,-327.8022C112.0619,-314.4895 106.3696,-296.67 102.6934,-285.1618"/>
<polygon fill="#000000" stroke="#000000" points="105.9607,-283.8878 99.5837,-275.4271 99.2927,-286.018 105.9607,-283.8878"/>
</g>
<!-- f -->
<g id="node11" class="node">
<title>f</title>
<ellipse fill="none" stroke="#000000" cx="146" cy="-273.6" rx="27" ry="18"/>
<text text-anchor="middle" x="146" y="-269.4" font-family="Arial" font-size="14.00" fill="#000000">f</text>
</g>
<!-- e&#45;&gt;f -->
<g id="edge10" class="edge">
<title>e-&gt;f</title>
<path fill="none" stroke="#000000" d="M127.9326,-327.8022C130.6355,-319.6936 133.8957,-309.9129 136.8984,-300.9049"/>
<polygon fill="#000000" stroke="#000000" points="140.2937,-301.7867 140.1357,-291.193 133.6529,-299.573 140.2937,-301.7867"/>
</g>
<!-- null5 -->
<g id="node12" class="node">
<title>null5</title>
<ellipse fill="#000000" stroke="#000000" cx="122" cy="-201.6" rx="1.8" ry="1.8"/>
</g>
<!-- f&#45;&gt;null5 -->
<g id="edge11" class="edge">
<title>f-&gt;null5</title>
<path fill="none" stroke="#000000" d="M140.0674,-255.8022C135.6298,-242.4895 129.69,-224.67 125.8539,-213.1618"/>
<polygon fill="#000000" stroke="#000000" points="129.0918,-211.8071 122.609,-203.4271 122.451,-214.0208 129.0918,-211.8071"/>
</g>
<!-- g -->
<g id="node13" class="node">
<title>g</title>
<ellipse fill="none" stroke="#000000" cx="169" cy="-201.6" rx="27" ry="18"/>
<text text-anchor="middle" x="169" y="-197.4" font-family="Arial" font-size="14.00" fill="#000000">g</text>
</g>
<!-- f&#45;&gt;g -->
<g id="edge12" class="edge">
<title>f-&gt;g</title>
<path fill="none" stroke="#000000" d="M151.6854,-255.8022C154.2563,-247.7541 157.3534,-238.0588 160.2132,-229.1067"/>
<polygon fill="#000000" stroke="#000000" points="163.5913,-230.0334 163.3003,-219.4425 156.9232,-227.9033 163.5913,-230.0334"/>
</g>
<!-- null6 -->
<g id="node14" class="node">
<title>null6</title>
<ellipse fill="#000000" stroke="#000000" cx="145" cy="-129.6" rx="1.8" ry="1.8"/>
</g>
<!-- g&#45;&gt;null6 -->
<g id="edge13" class="edge">
<title>g-&gt;null6</title>
<path fill="none" stroke="#000000" d="M163.0674,-183.8022C158.6298,-170.4895 152.69,-152.67 148.8539,-141.1618"/>
<polygon fill="#000000" stroke="#000000" points="152.0918,-139.8071 145.609,-131.4271 145.451,-142.0208 152.0918,-139.8071"/>
</g>
<!-- h -->
<g id="node15" class="node">
<title>h</title>
<ellipse fill="none" stroke="#000000" cx="192" cy="-129.6" rx="27" ry="18"/>
<text text-anchor="middle" x="192" y="-125.4" font-family="Arial" font-size="14.00" fill="#000000">h</text>
</g>
<!-- g&#45;&gt;h -->
<g id="edge14" class="edge">
<title>g-&gt;h</title>
<path fill="none" stroke="#000000" d="M174.6854,-183.8022C177.2563,-175.7541 180.3534,-166.0588 183.2132,-157.1067"/>
<polygon fill="#000000" stroke="#000000" points="186.5913,-158.0334 186.3003,-147.4425 179.9232,-155.9033 186.5913,-158.0334"/>
</g>
<!-- null7 -->
<g id="node16" class="node">
<title>null7</title>
<ellipse fill="#000000" stroke="#000000" cx="168" cy="-57.6" rx="1.8" ry="1.8"/>
</g>
<!-- h&#45;&gt;null7 -->
<g id="edge15" class="edge">
<title>h-&gt;null7</title>
<path fill="none" stroke="#000000" d="M186.0674,-111.8022C181.6298,-98.4895 175.69,-80.67 171.8539,-69.1618"/>
<polygon fill="#000000" stroke="#000000" points="175.0918,-67.8071 168.609,-59.4271 168.451,-70.0208 175.0918,-67.8071"/>
</g>
<!-- i -->
<g id="node17" class="node">
<title>i</title>
<ellipse fill="none" stroke="#000000" cx="215" cy="-57.6" rx="27" ry="18"/>
<text text-anchor="middle" x="215" y="-53.4" font-family="Arial" font-size="14.00" fill="#000000">i</text>
</g>
<!-- h&#45;&gt;i -->
<g id="edge16" class="edge">
<title>h-&gt;i</title>
<path fill="none" stroke="#000000" d="M197.6854,-111.8022C200.2563,-103.7541 203.3534,-94.0588 206.2132,-85.1067"/>
<polygon fill="#000000" stroke="#000000" points="209.5913,-86.0334 209.3003,-75.4425 202.9232,-83.9033 209.5913,-86.0334"/>
</g>
<!-- null8 -->
<g id="node18" class="node">
<title>null8</title>
<ellipse fill="#000000" stroke="#000000" cx="204" cy="-1.8" rx="1.8" ry="1.8"/>
</g>
<!-- i&#45;&gt;null8 -->
<g id="edge17" class="edge">
<title>i-&gt;null8</title>
<path fill="none" stroke="#000000" d="M211.459,-39.6374C209.7738,-31.0891 207.8064,-21.1091 206.3154,-13.5455"/>
<polygon fill="#000000" stroke="#000000" points="209.7174,-12.7061 204.3493,-3.5719 202.8496,-14.06 209.7174,-12.7061"/>
</g>
<!-- null9 -->
<g id="node19" class="node">
<title>null9</title>
<ellipse fill="#000000" stroke="#000000" cx="226" cy="-1.8" rx="1.8" ry="1.8"/>
</g>
<!-- i&#45;&gt;null9 -->
<g id="edge18" class="edge">
<title>i-&gt;null9</title>
<path fill="none" stroke="#000000" d="M218.541,-39.6374C220.2262,-31.0891 222.1936,-21.1091 223.6846,-13.5455"/>
<polygon fill="#000000" stroke="#000000" points="227.1504,-14.06 225.6507,-3.5719 220.2826,-12.7061 227.1504,-14.06"/>
</g>
</g>
</svg>