<?xml version="1.0" encoding="UTF-8" standalone="no"?><!DOCTYPE svg PUBLIC "-//W3C//DTD SVG 1.1//EN" "http://www.w3.org/Graphics/SVG/1.1/DTD/svg11.dtd"><!-- Generated by graphviz version 2.40.1 (20161225.0304)
 --><!-- Title: BST Pages: 1 --><svg xmlns="http://www.w3.org/2000/svg" xmlns:xlink="http://www.w3.org/1999/xlink" width="273pt" height="548pt" viewBox="0.00 0.00 273.00 548.00">
<g id="graph0" class="graph" transform="scale(1 1) rotate(0) translate(4 544)">
<title>BST</title>
<polygon fill="#ffffff" stroke="transparent" points="-4,4 -4,-544 269,-544 269,4 -4,4"/>
<!-- b -->
<g id="node1" class="node">
<title>b</title>
<ellipse fill="none" stroke="#000000" cx="63" cy="-522" rx="27" ry="18"/>
<text text-anchor="middle" x="63" y="-517.8" font-family="Arial" font-size="14.00" fill="#000000">b</text>
</g>
<!-- a -->
<g id="node2" class="node">
<title>a</title>
<ellipse fill="none" stroke="#000000" cx="27" cy="-450" rx="27" ry="18"/>
<text text-anchor="middle" x="27" y="-445.8" font-family="Arial" font-size="14.00" fill="#000000">a</text>
</g>
<!-- b&#45;&gt;a -->
<g id="edge1" class="edge">
<title>b-&gt;a</title>
<path fill="none" stroke="#000000" d="M54.2854,-504.5708C50.0403,-496.0807 44.8464,-485.6929 40.1337,-476.2674"/>
<polygon fill="#000000" stroke="#000000" points="43.237,-474.6477 35.6343,-467.2687 36.976,-477.7782 43.237,-474.6477"/>
</g>
<!-- c -->
<g id="node3" class="node">
<title>c</title>
<ellipse fill="none" stroke="#000000" cx="99" cy="-450" rx="27" ry="18"/>
<text text-anchor="middle" x="99" y="-445.8" font-family="Arial" font-size="14.00" fill="#000000">c</text>
</g>
<!-- b&#45;&gt;c -->
<g id="edge2" class="edge">
<title>b-&gt;c</title>
<path fill="none" stroke="#000000" d="M71.7146,-504.5708C75.9597,-496.0807 81.1536,-485.6929 85.8663,-476.2674"/>
<polygon fill="#000000" stroke="#000000" points="89.024,-477.7782 90.3657,-467.2687 82.763,-474.6477 89.024,-477.7782"/>
</g>
<!-- null2 -->
<g id="node4" class="node">
<title>null2</title>
<ellipse fill="#000000" stroke="#000000" cx="75" cy="-378" rx="1.8" ry="1.8"/>
</g>
<!-- c&#45;&gt;null2 -->
<g id="edge3" class="edge">
<title>c-&gt;null2</title>
<path fill="none" stroke="#000000" d="M93.0674,-432.2022C88.6298,-418.8895 82.69,-401.07 78.8539,-389.5618"/>
<polygon fill="#000000" stroke="#000000" points="82.0918,-388.2071 75.609,-379.8271 75.451,-390.4208 82.0918,-388.2071"/>
</g>
<!-- d -->
<g id="node5" class="node">
<title>d</title>
<ellipse fill="none" stroke="#000000" cx="122" cy="-378" rx="27" ry="18"/>
<text text-anchor="middle" x="122" y="-373.8" font-family="Arial" font-size="14.00" fill="#000000">d</text>
</g>
<!-- c&#45;&gt;d -->
<g id="edge4" class="edge">
<title>c-&gt;d</title>
<path fill="none" stroke="#000000" d="M104.6854,-432.2022C107.2563,-424.1541 110.3534,-414.4588 113.2132,-405.5067"/>
<polygon fill="#000000" stroke="#000000" points="116.5913,-406.4334 116.3003,-395.8425 109.9232,-404.3033 116.5913,-406.4334"/>
</g>
<!-- null3 -->
<g id="node6" class="node">
<title>null3</title>
<ellipse fill="#000000" stroke="#000000" cx="99" cy="-306" rx="1.8" ry="1.8"/>
</g>
<!-- d&#45;&gt;null3 -->
<g id="edge5" class="edge">
<title>d-&gt;null3</title>
<path fill="none" stroke="#000000" d="M116.3146,-360.2022C112.0619,-346.8895 106.3696,-329.07 102.6934,-317.5618"/>
<polygon fill="#000000" stroke="#000000" points="105.9607,-316.2878 99.5837,-307.8271 99.2927,-318.418 105.9607,-316.2878"/>
</g>
<!-- e -->
<g id="node7" class="node">
<title>e</title>
<ellipse fill="none" stroke="#000000" cx="146" cy="-306" rx="27" ry="18"/>
<text text-anchor="middle" x="146" y="-301.8" font-family="Arial" font-size="14.00" fill="#000000">e</text>
</g>
<!-- d&#45;&gt;e -->
<g id="edge6" class="edge">
<title>d-&gt;e</title>
<path fill="none" stroke="#000000" d="M127.9326,-360.2022C130.6355,-352.0936 133.8957,-342.3129 136.8984,-333.3049"/>
<polygon fill="#000000" stroke="#000000" points="140.2937,-334.1867 140.1357,-323.593 133.6529,-331.973 140.2937,-334.1867"/>
</g>
<!-- null4 -->
<g id="node8" class="node">
<title>null4</title>
<ellipse fill="#000000" stroke="#000000" cx="122" cy="-234" rx="1.8" ry="1.8"/>
</g>
<!-- e&#45;&gt;null4 -->
<g id="edge7" class="edge">
<title>e-&gt;null4</title>
<path fill="none" stroke="#000000" d="M140.0674,-288.2022C135.6298,-274.8895 129.69,-257.07 125.8539,-245.5618"/>
<polygon fill="#000000" stroke="#000000" points="129.0918,-244.2071 122.609,-235.8271 122.451,-246.4208 129.0918,-244.2071"/>
</g>
<!-- f -->
<g id="node9" class="node">
<title>f</title>
<ellipse fill="none" stroke="#000000" cx="169" cy="-234" rx="27" ry="18"/>
<text text-anchor="middle" x="169" y="-229.8" font-family="Arial" font-size="14.00" fill="#000000">f</text>
</g>
<!-- e&#45;&gt;f -->
<g id="edge8" class="edge">
<title>e-&gt;f</title>
<path fill="none" stroke="#000000" d="M151.6854,-288.2022C154.2563,-280.1541 157.3534,-270.4588 160.2132,-261.5067"/>
<polygon fill="#000000" stroke="#000000" points="163.5913,-262.4334 163.3003,-251.8425 156.9232,-260.3033 163.5913,-262.4334"/>
</g>
<!-- null5 -->
<g id="node10" class="node">
<title>null5</title>
<ellipse fill="#000000" stroke="#000000" cx="145" cy="-162" rx="1.8" ry="1.8"/>
</g>
<!-- f&#45;&gt;null5 -->
<g id="edge9" class="edge">
<title>f-&gt;null5</title>
<path fill="none" stroke="#000000" d="M163.0674,-216.2022C158.6298,-202.8895 152.69,-185.07 148.8539,-173.5618"/>
<polygon fill="#000000" stroke="#000000" points="152.0918,-172.2071 145.609,-163.8271 145.451,-174.4208 152.0918,-172.2071"/>
</g>
<!-- g -->
<g id="node11" class="node">
<title>g</title>
<ellipse fill="none" stroke="#000000" cx="192" cy="-162" rx="27" ry="18"/>
<text text-anchor="middle" x="192" y="-157.8" font-family="Arial" font-size="14.00" fill="#000000">g</text>
</g>
<!-- f&#45;&gt;g -->
<g id="edge10" class="edge">
<title>f-&gt;g</title>
<path fill="none" stroke="#000000" d="M174.6854,-216.2022C177.2563,-208.1541 180.3534,-198.4588 183.2132,-189.5067"/>
<polygon fill="#000000" stroke="#000000" points="186.5913,-190.4334 186.3003,-179.8425 179.9232,-188.3033 186.5913,-190.4334"/>
</g>
<!-- null6 -->
<g id="node12" class="node">
<title>null6</title>
<ellipse fill="#000000" stroke="#000000" cx="168" cy="-90" rx="1.8" ry="1.8"/>
</g>
<!-- g&#45;&gt;null6 -->
<g id="edge11" class="edge">
<title>g-&gt;null6</title>
<path fill="none" stroke="#000000" d="M186.0674,-144.2022C181.6298,-130.8895 175.69,-113.07 171.8539,-101.5618"/>
<polygon fill="#000000" stroke="#000000" points="175.0918,-100.2071 168.609,-91.8271 168.451,-102.4208 175.0918,-100.2071"/>
</g>
<!-- h -->
<g id="node13" class="node">
<title>h</title>
<ellipse fill="none" stroke="#000000" cx="215" cy="-90" rx="27" ry="18"/>
<text text-anchor="middle" x="215" y="-85.8" font-family="Arial" font-size="14.00" fill="#000000">h</text>
</g>
<!-- g&#45;&gt;h -->
<g id="edge12" class="edge">
<title>g-&gt;h</title>
<path fill="none" stroke="#000000" d="M197.6854,-144.2022C200.2563,-136.1541 203.3534,-126.4588 206.2132,-117.5067"/>
<polygon fill="#000000" stroke="#000000" points="209.5913,-118.4334 209.3003,-107.8425 202.9232,-116.3033 209.5913,-118.4334"/>
</g>
<!-- null7 -->
<g id="node14" class="node">
<title>null7</title>
<ellipse fill="#000000" stroke="#000000" cx="191" cy="-18" rx="1.8" ry="1.8"/>
</g>
<!-- h&#45;&gt;null7 -->
<g id="edge13" class="edge">
<title>h-&gt;null7</title>
<path fill="none" stroke="#000000" d="M209.0674,-72.2022C204.6298,-58.8895 198.69,-41.07 194.8539,-29.5618"/>
<polygon fill="#000000" stroke="#000000" points="198.0918,-28.2071 191.609,-19.8271 191.451,-30.4208 198.0918,-28.2071"/>
</g>
<!-- i -->
<g id="node15" class="node">
<title>i</title>
<ellipse fill="none" stroke="#000000" cx="238" cy="-18" rx="27" ry="18"/>
<text text-anchor="middle" x="238" y="-13.8" font-family="Arial" font-size="14.00" fill="#000000">i</text>
</g>
<!-- h&#45;&gt;i -->
<g id="edge14" class="edge">
<title>h-&gt;i</title>
<path fill="none" stroke="#000000" d="M220.6854,-72.2022C223.2563,-64.1541 226.3534,-54.4588 229.2132,-45.5067"/>
<polygon fill="#000000" stroke="#000000" points="232.5913,-46.4334 232.3003,-35.8425 225.9232,-44.3033 232.5913,-46.4334"/>
</g>
</g>
</svg>