<?xml version="1.0" encoding="UTF-8" standalone="no"?><!DOCTYPE svg PUBLIC "-//W3C//DTD SVG 1.1//EN" "http://www.w3.org/Graphics/SVG/1.1/DTD/svg11.dtd"><!-- Generated by graphviz version 2.40.1 (20161225.0304)
 --><!-- Title: BST Pages: 1 --><svg xmlns="http://www.w3.org/2000/svg" xmlns:xlink="http://www.w3.org/1999/xlink" width="246pt" height="660pt" viewBox="0.00 0.00 246.00 659.60">
<g id="graph0" class="graph" transform="scale(1 1) rotate(0) translate(4 655.6)">
<title>BST</title>
<polygon fill="#ffffff" stroke="transparent" points="-4,4 -4,-655.6 242,-655.6 242,4 -4,4"/>
<!-- i -->
<g id="node1" class="node">
<title>i</title>
<ellipse fill="none" stroke="#000000" cx="211" cy="-633.6" rx="27" ry="18"/>
<text text-anchor="middle" x="211" y="-629.4" font-family="Arial" font-size="14.00" fill="#000000">i</text>
</g>
<!-- h -->
<g id="node2" class="node">
<title>h</title>
<ellipse fill="none" stroke="#000000" cx="188" cy="-561.6" rx="27" ry="18"/>
<text text-anchor="middle" x="188" y="-557.4" font-family="Arial" font-size="14.00" fill="#000000">h</text>
</g>
<!-- i&#45;&gt;h -->
<g id="edge1" class="edge">
<title>i-&gt;h</title>
<path fill="none" stroke="#000000" d="M205.3146,-615.8022C202.7437,-607.7541 199.6466,-598.0588 196.7868,-589.1067"/>
<polygon fill="#000000" stroke="#000000" points="200.0768,-587.9033 193.6997,-579.4425 193.4087,-590.0334 200.0768,-587.9033"/>
</g>
<!-- null0 -->
<g id="node3" class="node">
<title>null0</title>
<ellipse fill="#000000" stroke="#000000" cx="235" cy="-561.6" rx="1.8" ry="1.8"/>
</g>
<!-- i&#45;&gt;null0 -->
<g id="edge2" class="edge">
<title>i-&gt;null0</title>
<path fill="none" stroke="#000000" d="M216.9326,-615.8022C221.3702,-602.4895 227.31,-584.67 231.1461,-573.1618"/>
<polygon fill="#000000" stroke="#000000" points="234.549,-574.0208 234.391,-563.4271 227.9082,-571.8071 234.549,-574.0208"/>
</g>
<!-- g -->
<g id="node4" class="node">
<title>g</title>
<ellipse fill="none" stroke="#000000" cx="165" cy="-489.6" rx="27" ry="18"/>
<text text-anchor="middle" x="165" y="-485.4" font-family="Arial" font-size="14.00" fill="#000000">g</text>
</g>
<!-- h&#45;&gt;g -->
<g id="edge3" class="edge">
<title>h-&gt;g</title>
<path fill="none" stroke="#000000" d="M182.3146,-543.8022C179.7437,-535.7541 176.6466,-526.0588 173.7868,-517.1067"/>
<polygon fill="#000000" stroke="#000000" points="177.0768,-515.9033 170.6997,-507.4425 170.4087,-518.0334 177.0768,-515.9033"/>
</g>
<!-- null1 -->
<g id="node5" class="node">
<title>null1</title>
<ellipse fill="#000000" stroke="#000000" cx="212" cy="-489.6" rx="1.8" ry="1.8"/>
</g>
<!-- h&#45;&gt;null1 -->
<g id="edge4" class="edge">
<title>h-&gt;null1</title>
<path fill="none" stroke="#000000" d="M193.9326,-543.8022C198.3702,-530.4895 204.31,-512.67 208.1461,-501.1618"/>
<polygon fill="#000000" stroke="#000000" points="211.549,-502.0208 211.391,-491.4271 204.9082,-499.8071 211.549,-502.0208"/>
</g>
<!-- f -->
<g id="node6" class="node">
<title>f</title>
<ellipse fill="none" stroke="#000000" cx="142" cy="-417.6" rx="27" ry="18"/>
<text text-anchor="middle" x="142" y="-413.4" font-family="Arial" font-size="14.00" fill="#000000">f</text>
</g>
<!-- g&#45;&gt;f -->
<g id="edge5" class="edge">
<title>g-&gt;f</title>
<path fill="none" stroke="#000000" d="M159.3146,-471.8022C156.7437,-463.7541 153.6466,-454.0588 150.7868,-445.1067"/>
<polygon fill="#000000" stroke="#000000" points="154.0768,-443.9033 147.6997,-435.4425 147.4087,-446.0334 154.0768,-443.9033"/>
</g>
<!-- null2 -->
<g id="node7" class="node">
<title>null2</title>
<ellipse fill="#000000" stroke="#000000" cx="189" cy="-417.6" rx="1.8" ry="1.8"/>
</g>
<!-- g&#45;&gt;null2 -->
<g id="edge6" class="edge">
<title>g-&gt;null2</title>
<path fill="none" stroke="#000000" d="M170.9326,-471.8022C175.3702,-458.4895 181.31,-440.67 185.1461,-429.1618"/>
<polygon fill="#000000" stroke="#000000" points="188.549,-430.0208 188.391,-419.4271 181.9082,-427.8071 188.549,-430.0208"/>
</g>
<!-- e -->
<g id="node8" class="node">
<title>e</title>
<ellipse fill="none" stroke="#000000" cx="119" cy="-345.6" rx="27" ry="18"/>
<text text-anchor="middle" x="119" y="-341.4" font-family="Arial" font-size="14.00" fill="#000000">e</text>
</g>
<!-- f&#45;&gt;e -->
<g id="edge7" class="edge">
<title>f-&gt;e</title>
<path fill="none" stroke="#000000" d="M136.3146,-399.8022C133.7437,-391.7541 130.6466,-382.0588 127.7868,-373.1067"/>
<polygon fill="#000000" stroke="#000000" points="131.0768,-371.9033 124.6997,-363.4425 124.4087,-374.0334 131.0768,-371.9033"/>
</g>
<!-- null3 -->
<g id="node9" class="node">
<title>null3</title>
<ellipse fill="#000000" stroke="#000000" cx="166" cy="-345.6" rx="1.8" ry="1.8"/>
</g>
<!-- f&#45;&gt;null3 -->
<g id="edge8" class="edge">
<title>f-&gt;null3</title>
<path fill="none" stroke="#000000" d="M147.9326,-399.8022C152.3702,-386.4895 158.31,-368.67 162.1461,-357.1618"/>
<polygon fill="#000000" stroke="#000000" points="165.549,-358.0208 165.391,-347.4271 158.9082,-355.8071 165.549,-358.0208"/>
</g>
<!-- d -->
<g id="node10" class="node">
<title>d</title>
<ellipse fill="none" stroke="#000000" cx="96" cy="-273.6" rx="27" ry="18"/>
<text text-anchor="middle" x="96" y="-269.4" font-family="Arial" font-size="14.00" fill="#000000">d</text>
</g>
<!-- e&#45;&gt;d -->
<g id="edge9" class="edge">
<title>e-&gt;d</title>
<path fill="none" stroke="#000000" d="M113.3146,-327.8022C110.7437,-319.7541 107.6466,-310.0588 104.7868,-301.1067"/>
<polygon fill="#000000" stroke="#000000" points="108.0768,-299.9033 101.6997,-291.4425 101.4087,-302.0334 108.0768,-299.9033"/>
</g>
<!-- null4 -->
<g id="node11" class="node">
<title>null4</title>
<ellipse fill="#000000" stroke="#000000" cx="143" cy="-273.6" rx="1.8" ry="1.8"/>
</g>
<!-- e&#45;&gt;null4 -->
<g id="edge10" class="edge">
<title>e-&gt;null4</title>
<path fill="none" stroke="#000000" d="M124.9326,-327.8022C129.3702,-314.4895 135.31,-296.67 139.1461,-285.1618"/>
<polygon fill="#000000" stroke="#000000" points="142.549,-286.0208 142.391,-275.4271 135.9082,-283.8071 142.549,-286.0208"/>
</g>
<!-- c -->
<g id="node12" class="node">
<title>c</title>
<ellipse fill="none" stroke="#000000" cx="73" cy="-201.6" rx="27" ry="18"/>
<text text-anchor="middle" x="73" y="-197.4" font-family="Arial" font-size="14.00" fill="#000000">c</text>
</g>
<!-- d&#45;&gt;c -->
<g id="edge11" class="edge">
<title>d-&gt;c</title>
<path fill="none" stroke="#000000" d="M90.3146,-255.8022C87.7437,-247.7541 84.6466,-238.0588 81.7868,-229.1067"/>
<polygon fill="#000000" stroke="#000000" points="85.0768,-227.9033 78.6997,-219.4425 78.4087,-230.0334 85.0768,-227.9033"/>
</g>
<!-- null5 -->
<g id="node13" class="node">
<title>null5</title>
<ellipse fill="#000000" stroke="#000000" cx="120" cy="-201.6" rx="1.8" ry="1.8"/>
</g>
<!-- d&#45;&gt;null5 -->
<g id="edge12" class="edge">
<title>d-&gt;null5</title>
<path fill="none" stroke="#000000" d="M101.9326,-255.8022C106.3702,-242.4895 112.31,-224.67 116.1461,-213.1618"/>
<polygon fill="#000000" stroke="#000000" points="119.549,-214.0208 119.391,-203.4271 112.9082,-211.8071 119.549,-214.0208"/>
</g>
<!-- b -->
<g id="node14" class="node">
<title>b</title>
<ellipse fill="none" stroke="#000000" cx="50" cy="-129.6" rx="27" ry="18"/>
<text text-anchor="middle" x="50" y="-125.4" font-family="Arial" font-size="14.00" fill="#000000">b</text>
</g>
<!-- c&#45;&gt;b -->
<g id="edge13" class="edge">
<title>c-&gt;b</title>
<path fill="none" stroke="#000000" d="M67.3146,-183.8022C64.7437,-175.7541 61.6466,-166.0588 58.7868,-157.1067"/>
<polygon fill="#000000" stroke="#000000" points="62.0768,-155.9033 55.6997,-147.4425 55.4087,-158.0334 62.0768,-155.9033"/>
</g>
<!-- null6 -->
<g id="node15" class="node">
<title>null6</title>
<ellipse fill="#000000" stroke="#000000" cx="97" cy="-129.6" rx="1.8" ry="1.8"/>
</g>
<!-- c&#45;&gt;null6 -->
<g id="edge14" class="edge">
<title>c-&gt;null6</title>
<path fill="none" stroke="#000000" d="M78.9326,-183.8022C83.3702,-170.4895 89.31,-152.67 93.1461,-141.1618"/>
<polygon fill="#000000" stroke="#000000" points="96.549,-142.0208 96.391,-131.4271 89.9082,-139.8071 96.549,-142.0208"/>
</g>
<!-- a -->
<g id="node16" class="node">
<title>a</title>
<ellipse fill="none" stroke="#000000" cx="27" cy="-57.6" rx="27" ry="18"/>
<text text-anchor="middle" x="27" y="-53.4" font-family="Arial" font-size="14.00" fill="#000000">a</text>
</g>
<!-- b&#45;&gt;a -->
<g id="edge15" class="edge">
<title>b-&gt;a</title>
<path fill="none" stroke="#000000" d="M44.3146,-111.8022C41.7437,-103.7541 38.6466,-94.0588 35.7868,-85.1067"/>
<polygon fill="#000000" stroke="#000000" points="39.0768,-83.9033 32.6997,-75.4425 32.4087,-86.0334 39.0768,-83.9033"/>
</g>
<!-- null7 -->
<g id="node17" class="node">
<title>null7</title>
<ellipse fill="#000000" stroke="#000000" cx="74" cy="-57.6" rx="1.8" ry="1.8"/>
</g>
<!-- b&#45;&gt;null7 -->
<g id="edge16" class="edge">
<title>b-&gt;null7</title>
<path fill="none" stroke="#000000" d="M55.9326,-111.8022C60.3702,-98.4895 66.31,-80.67 70.1461,-69.1618"/>
<polygon fill="#000000" stroke="#000000" points="73.549,-70.0208 73.391,-59.4271 66.9082,-67.8071 73.549,-70.0208"/>
</g>
<!-- null8 -->
<g id="node18" class="node">
<title>null8</title>
<ellipse fill="#000000" stroke="#000000" cx="16" cy="-1.8" rx="1.8" ry="1.8"/>
</g>
<!-- a&#45;&gt;null8 -->
<g id="edge17" class="edge">
<title>a-&gt;null8</title>
<path fill="none" stroke="#000000" d="M23.459,-39.6374C21.7738,-31.0891 19.8064,-21.1091 18.3154,-13.5455"/>
<polygon fill="#000000" stroke="#000000" points="21.7174,-12.7061 16.3493,-3.5719 14.8496,-14.06 21.7174,-12.7061"/>
</g>
<!-- null9 -->
<g id="node19" class="node">
<title>null9</title>
<ellipse fill="#000000" stroke="#000000" cx="38" cy="-1.8" rx="1.8" ry="1.8"/>
</g>
<!-- a&#45;&gt;null9 -->
<g id="edge18" class="edge">
<title>a-&gt;null9</title>
<path fill="none" stroke="#000000" d="M30.541,-39.6374C32.2262,-31.0891 34.1936,-21.1091 35.6846,-13.5455"/>
<polygon fill="#000000" stroke="#000000" points="39.1504,-14.06 37.6507,-3.5719 32.2826,-12.7061 39.1504,-14.06"/>
</g>
</g>
</svg>