<?xml version="1.0" encoding="UTF-8" standalone="no"?><!DOCTYPE svg PUBLIC "-//W3C//DTD SVG 1.1//EN" "http://www.w3.org/Graphics/SVG/1.1/DTD/svg11.dtd"><!-- Generated by graphviz version 2.40.1 (20161225.0304)
 --><!-- Title: BST Pages: 1 --><svg xmlns="http://www.w3.org/2000/svg" xmlns:xlink="http://www.w3.org/1999/xlink" width="87pt" height="660pt" viewBox="0.00 0.00 87.00 659.60">
<g id="graph0" class="graph" transform="scale(1 1) rotate(0) translate(4 655.6)">
<title>BST</title>
<polygon fill="#ffffff" stroke="transparent" points="-4,4 -4,-655.6 83,-655.6 83,4 -4,4"/>
<!-- null0 -->
<g id="node1" class="node">
<title>null0</title>
<ellipse fill="#000000" stroke="#000000" cx="4" cy="-561.6" rx="1.8" ry="1.8"/>
</g>
<!-- a -->
<g id="node2" class="node">
<title>a</title>
<ellipse fill="none" stroke="#000000" cx="27" cy="-633.6" rx="27" ry="18"/>
<text text-anchor="middle" x="27" y="-629.4" font-family="Arial" font-size="14.00" fill="#000000">a</text>
</g>
<!-- a&#45;&gt;null0 -->
<g id="edge1" class="edge">
<title>a-&gt;null0</title>
<path fill="none" stroke="#000000" d="M21.3146,-615.8022C17.0619,-602.4895 11.3696,-584.67 7.6934,-573.1618"/>
<polygon fill="#000000" stroke="#000000" points="10.9607,-571.8878 4.5837,-563.4271 4.2927,-574.018 10.9607,-571.8878"/>
</g>
<!-- i -->
<g id="node3" class="node">
<title>i</title>
<ellipse fill="none" stroke="#000000" cx="51" cy="-561.6" rx="27" ry="18"/>
<text text-anchor="middle" x="51" y="-557.4" font-family="Arial" font-size="14.00" fill="#000000">i</text>
</g>
<!-- a&#45;&gt;i -->
<g id="edge2" class="edge">
<title>a-&gt;i</title>
<path fill="none" stroke="#000000" d="M32.9326,-615.8022C35.6355,-607.6936 38.8957,-597.9129 41.8984,-588.9049"/>
<polygon fill="#000000" stroke="#000000" points="45.2937,-589.7867 45.1357,-579.193 38.6529,-587.573 45.2937,-589.7867"/>
</g>
<!-- b -->
<g id="node4" class="node">
<title>b</title>
<ellipse fill="none" stroke="#000000" cx="28" cy="-489.6" rx="27" ry="18"/>
<text text-anchor="middle" x="28" y="-485.4" font-family="Arial" font-size="14.00" fill="#000000">b</text>
</g>
<!-- i&#45;&gt;b -->
<g id="edge3" class="edge">
<title>i-&gt;b</title>
<path fill="none" stroke="#000000" d="M45.3146,-543.8022C42.7437,-535.7541 39.6466,-526.0588 36.7868,-517.1067"/>
<polygon fill="#000000" stroke="#000000" points="40.0768,-515.9033 33.6997,-507.4425 33.4087,-518.0334 40.0768,-515.9033"/>
</g>
<!-- null1 -->
<g id="node5" class="node">
<title>null1</title>
<ellipse fill="#000000" stroke="#000000" cx="75" cy="-489.6" rx="1.8" ry="1.8"/>
</g>
<!-- i&#45;&gt;null1 -->
<g id="edge4" class="edge">
<title>i-&gt;null1</title>
<path fill="none" stroke="#000000" d="M56.9326,-543.8022C61.3702,-530.4895 67.31,-512.67 71.1461,-501.1618"/>
<polygon fill="#000000" stroke="#000000" points="74.549,-502.0208 74.391,-491.4271 67.9082,-499.8071 74.549,-502.0208"/>
</g>
<!-- null2 -->
<g id="node6" class="node">
<title>null2</title>
<ellipse fill="#000000" stroke="#000000" cx="5" cy="-417.6" rx="1.8" ry="1.8"/>
</g>
<!-- b&#45;&gt;null2 -->
<g id="edge5" class="edge">
<title>b-&gt;null2</title>
<path fill="none" stroke="#000000" d="M22.3146,-471.8022C18.0619,-458.4895 12.3696,-440.67 8.6934,-429.1618"/>
<polygon fill="#000000" stroke="#000000" points="11.9607,-427.8878 5.5837,-419.4271 5.2927,-430.018 11.9607,-427.8878"/>
</g>
<!-- h -->
<g id="node7" class="node">
<title>h</title>
<ellipse fill="none" stroke="#000000" cx="52" cy="-417.6" rx="27" ry="18"/>
<text text-anchor="middle" x="52" y="-413.4" font-family="Arial" font-size="14.00" fill="#000000">h</text>
</g>
<!-- b&#45;&gt;h -->
<g id="edge6" class="edge">
<title>b-&gt;h</title>
<path fill="none" stroke="#000000" d="M33.9326,-471.8022C36.6355,-463.6936 39.8957,-453.9129 42.8984,-444.9049"/>
<polygon fill="#000000" stroke="#000000" points="46.2937,-445.7867 46.1357,-435.193 39.6529,-443.573 46.2937,-445.7867"/>
</g>
<!-- c -->
<g id="node8" class="node">
<title>c</title>
<ellipse fill="none" stroke="#000000" cx="28" cy="-345.6" rx="27" ry="18"/>
<text text-anchor="middle" x="28" y="-341.4" font-family="Arial" font-size="14.00" fill="#000000">c</text>
</g>
<!-- h&#45;&gt;c -->
<g id="edge7" class="edge">
<title>h-&gt;c</title>
<path fill="none" stroke="#000000" d="M46.0674,-399.8022C43.3645,-391.6936 40.1043,-381.9129 37.1016,-372.9049"/>
<polygon fill="#000000" stroke="#000000" points="40.3471,-371.573 33.8643,-363.193 33.7063,-373.7867 40.3471,-371.573"/>
</g>
<!-- null3 -->
<g id="node9" class="node">
<title>null3</title>
<ellipse fill="#000000" stroke="#000000" cx="75" cy="-345.6" rx="1.8" ry="1.8"/>
</g>
<!-- h&#45;&gt;null3 -->
<g id="edge8" class="edge">
<title>h-&gt;null3</title>
<path fill="none" stroke="#000000" d="M57.6854,-399.8022C61.9381,-386.4895 67.6304,-368.67 71.3066,-357.1618"/>
<polygon fill="#000000" stroke="#000000" points="74.7073,-358.018 74.4163,-347.4271 68.0393,-355.8878 74.7073,-358.018"/>
</g>
<!-- null4 -->
<g id="node10" class="node">
<title>null4</title>
<ellipse fill="#000000" stroke="#000000" cx="5" cy="-273.6" rx="1.8" ry="1.8"/>
</g>
<!-- c&#45;&gt;null4 -->
<g id="edge9" class="edge">
<title>c-&gt;null4</title>
<path fill="none" stroke="#000000" d="M22.3146,-327.8022C18.0619,-314.4895 12.3696,-296.67 8.6934,-285.1618"/>
<polygon fill="#000000" stroke="#000000" points="11.9607,-283.8878 5.5837,-275.4271 5.2927,-286.018 11.9607,-283.8878"/>
</g>
<!-- g -->
<g id="node11" class="node">
<title>g</title>
<ellipse fill="none" stroke="#000000" cx="52" cy="-273.6" rx="27" ry="18"/>
<text text-anchor="middle" x="52" y="-269.4" font-family="Arial" font-size="14.00" fill="#000000">g</text>
</g>
<!-- c&#45;&gt;g -->
<g id="edge10" class="edge">
<title>c-&gt;g</title>
<path fill="none" stroke="#000000" d="M33.9326,-327.8022C36.6355,-319.6936 39.8957,-309.9129 42.8984,-300.9049"/>
<polygon fill="#000000" stroke="#000000" points="46.2937,-301.7867 46.1357,-291.193 39.6529,-299.573 46.2937,-301.7867"/>
</g>
<!-- d -->
<g id="node12" class="node">
<title>d</title>
<ellipse fill="none" stroke="#000000" cx="28" cy="-201.6" rx="27" ry="18"/>
<text text-anchor="middle" x="28" y="-197.4" font-family="Arial" font-size="14.00" fill="#000000">d</text>
</g>
<!-- g&#45;&gt;d -->
<g id="edge11" class="edge">
<title>g-&gt;d</title>
<path fill="none" stroke="#000000" d="M46.0674,-255.8022C43.3645,-247.6936 40.1043,-237.9129 37.1016,-228.9049"/>
<polygon fill="#000000" stroke="#000000" points="40.3471,-227.573 33.8643,-219.193 33.7063,-229.7867 40.3471,-227.573"/>
</g>
<!-- null5 -->
<g id="node13" class="node">
<title>null5</title>
<ellipse fill="#000000" stroke="#000000" cx="75" cy="-201.6" rx="1.8" ry="1.8"/>
</g>
<!-- g&#45;&gt;null5 -->
<g id="edge12" class="edge">
<title>g-&gt;null5</title>
<path fill="none" stroke="#000000" d="M57.6854,-255.8022C61.9381,-242.4895 67.6304,-224.67 71.3066,-213.1618"/>
<polygon fill="#000000" stroke="#000000" points="74.7073,-214.018 74.4163,-203.4271 68.0393,-211.8878 74.7073,-214.018"/>
</g>
<!-- null6 -->
<g id="node14" class="node">
<title>null6</title>
<ellipse fill="#000000" stroke="#000000" cx="5" cy="-129.6" rx="1.8" ry="1.8"/>
</g>
<!-- d&#45;&gt;null6 -->
<g id="edge13" class="edge">
<title>d-&gt;null6</title>
<path fill="none" stroke="#000000" d="M22.3146,-183.8022C18.0619,-170.4895 12.3696,-152.67 8.6934,-141.1618"/>
<polygon fill="#000000" stroke="#000000" points="11.9607,-139.8878 5.5837,-131.4271 5.2927,-142.018 11.9607,-139.8878"/>
</g>
<!-- f -->
<g id="node15" class="node">
<title>f</title>
<ellipse fill="none" stroke="#000000" cx="52" cy="-129.6" rx="27" ry="18"/>
<text text-anchor="middle" x="52" y="-125.4" font-family="Arial" font-size="14.00" fill="#000000">f</text>
</g>
<!-- d&#45;&gt;f -->
<g id="edge14" class="edge">
<title>d-&gt;f</title>
<path fill="none" stroke="#000000" d="M33.9326,-183.8022C36.6355,-175.6936 39.8957,-165.9129 42.8984,-156.9049"/>
<polygon fill="#000000" stroke="#000000" points="46.2937,-157.7867 46.1357,-147.193 39.6529,-155.573 46.2937,-157.7867"/>
</g>
<!-- e -->
<g id="node16" class="node">
<title>e</title>
<ellipse fill="none" stroke="#000000" cx="28" cy="-57.6" rx="27" ry="18"/>
<text text-anchor="middle" x="28" y="-53.4" font-family="Arial" font-size="14.00" fill="#000000">e</text>
</g>
<!-- f&#45;&gt;e -->
<g id="edge15" class="edge">
<title>f-&gt;e</title>
<path fill="none" stroke="#000000" d="M46.0674,-111.8022C43.3645,-103.6936 40.1043,-93.9129 37.1016,-84.9049"/>
<polygon fill="#000000" stroke="#000000" points="40.3471,-83.573 33.8643,-75.193 33.7063,-85.7867 40.3471,-83.573"/>
</g>
<!-- null7 -->
<g id="node17" class="node">
<title>null7</title>
<ellipse fill="#000000" stroke="#000000" cx="75" cy="-57.6" rx="1.8" ry="1.8"/>
</g>
<!-- f&#45;&gt;null7 -->
<g id="edge16" class="edge">
<title>f-&gt;null7</title>
<path fill="none" stroke="#000000" d="M57.6854,-111.8022C61.9381,-98.4895 67.6304,-80.67 71.3066,-69.1618"/>
<polygon fill="#000000" stroke="#000000" points="74.7073,-70.018 74.4163,-59.4271 68.0393,-67.8878 74.7073,-70.018"/>
</g>
<!-- null8 -->
<g id="node18" class="node">
<title>null8</title>
<ellipse fill="#000000" stroke="#000000" cx="17" cy="-1.8" rx="1.8" ry="1.8"/>
</g>
<!-- e&#45;&gt;null8 -->
<g id="edge17" class="edge">
<title>e-&gt;null8</title>
<path fill="none" stroke="#000000" d="M24.459,-39.6374C22.7738,-31.0891 20.8064,-21.1091 19.3154,-13.5455"/>
<polygon fill="#000000" stroke="#000000" points="22.7174,-12.7061 17.3493,-3.5719 15.8496,-14.06 22.7174,-12.7061"/>
</g>
<!-- null9 -->
<g id="node19" class="node">
<title>null9</title>
<ellipse fill="#000000" stroke="#000000" cx="39" cy="-1.8" rx="1.8" ry="1.8"/>
</g>
<!-- e&#45;&gt;null9 -->
<g id="edge18" class="edge">
<title>e-&gt;null9</title>
<path fill="none" stroke="#000000" d="M31.541,-39.6374C33.2262,-31.0891 35.1936,-21.1091 36.6846,-13.5455"/>
<polygon fill="#000000" stroke="#000000" points="40.1504,-14.06 38.6507,-3.5719 33.2826,-12.7061 40.1504,-14.06"/>
</g>
</g>
</svg>